<svg width="1336" height="754" viewBox="0 0 1336 754" fill="none" xmlns="http://www.w3.org/2000/svg">
<path d="M1331.22 475.019H1276.31M1250.8 669.18L1211.96 630.348M836.971 475.019H782.054M901.304 319.691L862.472 280.859M1211.96 319.691L1250.8 280.859M1056.64 749.604V694.687" stroke="#8DAF42" stroke-width="8.35144" stroke-linecap="round" stroke-linejoin="round"/>
<path d="M1175.86 508.996C1175.75 506.077 1175.21 494.36 1177.06 493.181C1178.65 492.171 1212.24 452.304 1177.32 431.393C1150.89 415.579 1107.05 342.287 1094.46 328.268C1088.2 321.298 1082.38 313.935 1076.61 306.606C1076.32 306.28 1076.04 305.944 1075.75 305.618C1074.49 304.204 1073.21 302.812 1071.86 301.454C1069.08 298.614 1032.1 272.62 1055.24 250.789C1063.66 242.832 1070.34 234.762 1079.15 227.331C1080.97 225.794 1082.77 224.234 1084.49 222.606C1085.12 222.011 1085.73 221.394 1086.33 220.777C1087.11 219.216 1088.55 217.398 1089.59 215.939C1089.81 215.288 1090.04 214.637 1090.24 213.986C1090.99 211.36 1081.98 187.812 1081.75 187.408C1075.88 177.239 1050.77 148.775 1049.29 147.204C1046.89 144.645 990.607 96.7972 955.094 79.344C845.135 25.3008 715.669 24.2682 593.332 23.7968C567.634 23.6958 541.936 23.8754 516.36 24.9192C508.339 25.2447 479.772 29.6445 474.938 24.9529C473.339 23.404 472.679 19.2062 470.665 16.5461C457.029 -1.50192 422.773 -0.256066 401.653 0.215338C350.599 1.3714 300.02 6.13034 249.162 10.3505C227.822 12.1239 174.094 8.57716 163.302 29.0047C161.386 32.6412 160.311 42.3275 158.004 43.2591C155.965 44.0784 143.989 44.8978 140.559 45.1222C127.557 45.9304 113.322 45.3243 100.321 46.2671C86.0251 47.2997 83.8277 46.6375 80.5437 59.4889C76.5272 75.2136 77.9922 95.5401 73.7438 109.323C66.0527 134.263 48.3388 159.135 40.5134 185.343C20.7485 251.553 10.5304 319.693 3.31538 387.822C-2.26371 440.485 -1.23823 496.986 9.74904 549.031C11.9831 559.616 13.5824 567.932 25.2777 572.893C51.5129 584.028 92.3245 585.902 120.72 591.716C135.114 594.668 131.232 599.898 135.749 610.426C164.022 676.311 264.373 678.118 290.987 614.13C294.209 606.374 294.026 591.514 304.074 591.289C372.976 599.438 442.635 602.558 511.171 613.041C528.91 615.758 546.392 620.146 564.203 622.627C579.866 624.804 595.615 625.724 611.314 627.554C615.074 629.372 617.443 645.153 619.494 650.327C632.971 684.392 674.967 707.524 714.07 704.685C760.057 701.351 791.933 673.404 802.139 632.863C813.883 633.907 825.554 634.299 837.383 634.075C841.473 633.996 844.952 632.436 849.555 632.863C854.231 633.301 856.867 636.454 861.348 637.745C868.184 639.709 882.15 640.461 889.756 640.798C902.501 641.359 924.903 638.699 935.915 640.989C944.314 642.729 948.611 658.173 954.459 664.323C982.171 693.45 1040.99 683.146 1054.47 646.32C1056.21 641.539 1057.04 628.564 1060.07 626.791C1064.32 624.299 1088.43 620.853 1095.66 619.125C1115.69 614.343 1139.03 609.192 1158.26 602.637C1173.29 597.507 1191.52 589.662 1194.9 573.5C1199.21 552.904 1183.36 549.896 1178.94 534.227C1177.12 527.751 1176.12 515.853 1175.88 508.996H1175.86ZM1175.5 473.225C1156.2 489.848 1124.77 466.973 1141.77 446.142C1161.1 422.426 1198.16 453.718 1175.5 473.225ZM932.472 502.766C933.742 500.825 940.749 499.511 943.276 498.12C948.684 495.134 952.774 491.116 955.716 485.998C959.061 480.161 956.742 475.908 965.556 474.853C984.662 472.552 1010.05 475.526 1030.16 474.785C1060.62 473.663 1091.03 468.735 1121.56 468.073C1130.83 470.441 1132.38 479.903 1140.13 484.64C1145.8 488.097 1161.34 489.803 1162.2 490.712C1164.41 493.058 1164.36 505.976 1162.37 508.827C1159.76 512.576 1131.48 517.043 1124.92 518.143C1077.64 526.09 1029.27 528.346 981.243 529.636C970.366 529.928 959.403 531.578 948.306 530.849C938.735 530.22 931.801 530.018 930.787 520.006C930.555 517.739 931.764 503.844 932.472 502.744V502.766ZM921.607 491.464C897.056 488.433 896.58 455.289 920.569 451.462C955.704 445.85 956.546 495.785 921.607 491.464ZM935.133 541.949C939.394 539.48 983.111 541.276 992.328 540.961C1043.05 539.255 1102.93 534.395 1152.8 525.832C1155.64 525.349 1160.41 522.936 1161.95 522.947C1166.28 522.981 1167.37 533.217 1164.65 536.158C1120.95 544.138 1078.26 553.476 1033.75 557.73C1004.73 560.502 971.306 563.05 942.263 563.454C937.136 563.521 933.974 563.275 933.217 558.246C932.728 555.036 932.326 543.588 935.133 541.96V541.949ZM1126.4 391.829C1130.34 397.486 1134.83 404.175 1138.3 410.046C1139.97 412.885 1148.37 427.196 1147.32 428.745C1146.27 430.294 1140.18 432.404 1138.17 433.874C1130.22 439.688 1126.82 447.388 1124.75 456.311C1070.68 461.395 1016.27 465.155 961.759 464.65C958.378 464.066 953.214 452.708 949.734 449.341C946.988 446.68 940.407 442.718 936.525 441.854C928.346 440.047 918.726 443.437 912.903 437.769C909.289 429.744 871.334 380.134 872.091 376.621C872.726 373.658 890.733 375.128 894.713 374.948C952.86 372.277 1012.12 371.278 1070.33 370.369C1079.87 370.223 1099.94 369.011 1108.17 370.436C1112.87 371.256 1123.32 387.396 1126.4 391.818V391.829ZM1078.26 330.636C1079.84 334.329 1102.66 357.798 1101.47 359.201C1099.32 361.727 1092.57 358.236 1090.43 356.463C1076.05 344.498 1060.72 322.712 1047.19 308.716C999.604 259.454 952.628 259.51 884.934 258.208C853.645 257.614 822.258 258.781 790.968 258.22C786.793 257.759 785.658 253.191 786.83 249.992C788.026 246.715 803.811 248.421 808.072 248.197C857.405 245.705 917.725 245.402 966.447 252.821C1023.35 261.497 1045.14 291.959 1078.26 330.625V330.636ZM1065.77 224.929C1056.82 231.305 1044.05 239.375 1032.59 240.351L798.879 225.704C802.883 221.046 807.632 216.714 810.831 211.472C813.431 207.218 814.249 199.934 818.937 199.866C902.025 204.704 984.967 211.562 1067.31 222.359C1068.01 224.941 1066.79 224.2 1065.77 224.918V224.929ZM714.021 46.211C858.528 43.2142 993.818 78.9624 1071.49 197.779C1075.03 203.2 1082.25 210.641 1070.41 210.047C1020.13 207.487 967.204 199.563 916.614 195.455C884.433 192.84 852.106 191.561 819.926 188.99C817.997 188.104 816.654 186.802 815.69 185.04C812.284 178.844 810.281 166.419 807.437 158.978C788.966 110.58 752.696 71.2403 702.484 48.5006L714.021 46.2222V46.211ZM176.817 32.4504C179.698 27.9721 195.898 25.5926 201.611 24.9641C221.364 22.7979 242.874 24.0213 262.591 22.6968C309.067 19.5654 355.36 14.3014 402.068 12.9433C412.664 12.629 443.954 10.3618 448.776 20.9571C450.424 24.5712 450.326 27.2201 445.602 28.2864C419.904 28.118 394.401 31.6423 368.813 32.8545C316.855 35.3013 264.556 35.234 212.586 38.4328C205.676 38.8593 182.322 43.2479 177.793 41.2275C174.302 39.6562 175.217 34.9534 176.817 32.4729V32.4504ZM60.0951 179.787C66.834 161.065 78.8467 141.581 84.4503 123.656C90.2125 105.226 85.7443 84.0356 91.4943 65.0672C92.5076 61.7112 93.2279 59.2419 97.1955 57.9736L156.454 54.1126C241.104 50.0383 325.56 47.0752 410.235 42.8775C548.54 36.0196 727.828 3.42539 792.152 152.838C802.468 176.801 817.167 211.898 778.174 219.598C686.65 225.917 593.71 219.115 501.722 220.159C482.885 214.278 465.782 219.351 446.908 220.159C363.441 223.773 281 212.011 196.85 217.982C162.899 220.395 130.951 221.888 96.6217 220.159C81.0076 219.374 65.369 216.983 49.6939 216.747C48.0458 215.198 58.4593 184.422 60.1196 179.787H60.0951ZM209.559 602.098C201.221 623.626 192.882 597.844 192.394 587.529C192.101 581.435 194.408 559.84 201.843 557.932C206.604 556.709 207.288 560.244 208.887 563.387C213.929 573.32 213.587 591.738 209.571 602.098H209.559ZM260.784 634.603C257.158 637.386 253.654 640.574 248.563 639.62C258.537 629.529 268.487 619.226 273.895 606.273C275.116 603.344 278.376 589.752 279.169 589.258C282.148 587.383 284.821 589.898 285.236 593.04C287.043 606.745 271.722 626.218 260.772 634.603H260.784ZM581.673 611.594C539.506 606.52 497.633 599.416 455.368 594.78C402.666 588.988 349.427 586.205 296.761 580.178C290.474 579.459 277.155 579.336 273.907 574.263C271.393 570.334 270.086 560.143 268.121 554.901C253.508 515.966 216.749 481.475 168.784 486.099C121.563 490.656 110.026 547.325 125.311 581.289C106.889 579.336 88.4911 576.609 70.3866 572.905C62.4513 571.277 32.6392 565.16 27.7071 561.67C23.8616 558.953 20.4921 540.827 19.5033 535.551C12.6668 498.816 12.0075 450.822 15.499 413.626C15.7432 411.022 16.6954 400.763 17.3058 399.585C18.5266 397.273 21.0415 397.486 23.3488 397.284C42.9794 395.511 69.1047 399.113 89.2602 399.641C150.85 401.246 213.148 402.245 274.725 403.008C301.644 403.345 332.811 400.898 359.022 402.918C361.989 403.143 366.237 403.446 368.032 405.859C370.241 408.822 369.533 423.638 369.399 428.251C368.251 469.454 365.993 516.224 370.571 557.191C371.975 569.784 385.074 565.003 395.634 565.564C417.548 566.732 439.583 569.032 461.484 570.087C480.871 571.019 508.937 573.724 527.408 572.377C541.692 571.333 542.888 569.01 543.889 556.114C545.732 532.274 544.304 506.077 545.012 481.991C547.173 407.801 549.224 332.892 546.563 258.568C545.037 254.067 540.617 252.226 535.807 251.631C510.707 248.522 481.835 251.362 456.65 251.575C431.343 251.788 399.272 249.285 374.917 252.72C369.338 253.506 368.532 256.457 368.081 261.014C364.992 292.048 367.397 335.597 368.081 367.675C368.203 373.209 372.854 390.449 364.845 392.648C323.033 392.233 281.159 392.446 239.346 391.796C173.13 390.763 104.13 390.404 38.0107 387.306C35.2029 387.171 22.4454 386.374 21.1514 385.982C20.1869 385.69 19.5643 385.241 19.3202 384.298C22.3111 356.833 25.7294 329.009 30.3441 301.634C33.3717 283.675 36.5824 263.181 41.5022 245.716C43.6142 238.196 42.9184 233.235 52.6604 232.416C64.7708 231.394 77.6137 233.493 89.2724 233.639C154.818 234.425 220.399 233.19 285.822 232.517C317.771 232.191 350.22 232.461 382.12 232.427C443.356 232.371 503.993 229.857 565.216 232.449C569.367 232.887 571.455 233.404 571.98 237.455C574.983 260.947 569.55 289.77 571.98 313.845C569.453 406.892 585.799 503.844 581.636 596.408C581.404 601.447 581.905 606.565 581.685 611.605L581.673 611.594ZM535.368 442.819C534.831 473.595 533.146 505.067 531.608 535.832C531.364 540.625 532.938 557.169 530.143 559.728C527.689 561.984 500.025 561.288 494.446 561.108C467.283 560.222 439.815 557.191 412.664 555.519C396.122 554.497 386.808 560.85 385.184 541.523C381.168 493.933 387.089 440.732 385.282 392.256C384.427 369.437 382.791 349.212 382.84 326.169C382.877 305.371 382.108 284.484 383.499 263.742C386.82 261.564 442.428 262.934 451.779 262.788C476.378 262.429 502.76 259.533 527.433 261.564C529.984 261.778 534.147 261.968 535.111 264.606C534.66 323.981 536.393 383.445 535.368 442.819ZM706.745 644.109C701.092 648.183 695.965 648.621 690.691 643.739C679.972 633.806 680.29 608.776 685.552 596.587C692.058 581.547 705.744 576.71 713.813 593.871C719.685 606.352 719.392 634.984 706.745 644.109ZM780.787 654.963C773.914 666.018 763.195 676.255 751.194 682.719C748.313 684.268 739.389 689.779 737.875 685.638C760.46 673.718 775.037 652.583 781.251 629.574C782.276 625.792 780.384 621.616 786.683 624.479C794.985 628.25 784.266 649.373 780.787 654.963ZM844.049 618.81C843.866 620.202 842.962 621.628 841.583 622.245C839.007 623.401 816.044 623.132 811.82 622.683C776.905 618.956 781.08 581.311 771.387 558.897C756.31 524.047 707.514 507.761 669.754 515.876C623.571 525.798 599.668 557.651 602.39 600.964C602.561 603.658 604.99 611.032 604.722 612.054C604.087 614.456 597.031 614.59 595.639 612.772C594.113 610.774 595.334 570.424 595.151 563.858C593.063 486.245 588.778 408.351 587.728 330.636C587.35 302.588 585.226 266.941 587.728 239.689C587.887 237.949 587.936 235.076 589.291 233.841C592.343 231.035 616.21 235.727 622.497 235.862C635.84 236.165 649.562 233.763 662.771 233.516C684.831 233.112 706.806 234.245 728.658 234.728C733.248 234.829 754.503 233.448 756.126 234.122C758.202 234.997 760.851 238.982 762.292 240.823C781.092 264.752 798.427 294.001 816.178 319.165C836.468 347.932 857.673 376.217 877.475 405.275C884.922 416.207 895.701 430.215 901.586 441.439C905.895 449.644 897.911 451.383 894.2 458.589C887.571 471.474 890.965 485.235 902.697 494.247C906.31 497.02 915.466 500.353 916.699 503.81C917.517 506.1 918.299 512.845 918.506 515.607C919.104 523.497 919.751 554.901 917.651 560.895C917.383 561.67 917.151 562.792 916.638 563.331C914.563 565.575 897.032 564.128 892.234 564.453C856.196 566.934 836.59 584.185 844.049 618.777V618.81ZM1132 598.697C1056.84 617.486 960.123 636.668 882.468 629.529C865.645 627.98 856.831 629.148 855.024 611.01C850.751 568.123 898.192 576.283 930.091 574.622C984.515 571.794 1039.26 569.481 1093.17 560.76C1114.08 557.382 1139.63 549.368 1159.8 547.999C1174.49 547 1182.09 553.779 1183.15 567.45C1184.64 586.676 1147.65 594.791 1131.99 598.708L1132 598.697Z" fill="#19323A"/>
<path d="M581.672 611.592C539.505 606.519 497.632 599.414 455.367 594.779C402.665 588.987 349.426 586.204 296.76 580.176C290.473 579.458 277.154 579.335 273.906 574.261C271.392 570.333 270.085 560.142 268.12 554.9C253.507 515.964 216.748 481.473 168.783 486.098C121.562 490.654 110.025 547.324 125.31 581.288C106.888 579.335 88.4902 576.607 70.3856 572.903C62.4503 571.276 32.6382 565.159 27.7062 561.668C23.8606 558.952 20.4912 540.825 19.5023 535.55C12.6658 498.814 12.0066 450.821 15.4981 413.625C15.7422 411.021 16.6945 400.762 17.3049 399.584C18.5257 397.271 21.0405 397.485 23.3479 397.283C42.9785 395.509 69.1037 399.112 89.2593 399.64C150.849 401.245 213.147 402.244 274.724 403.007C301.643 403.344 332.81 400.897 359.021 402.917C361.988 403.142 366.236 403.445 368.031 405.858C370.24 408.821 369.532 423.636 369.398 428.249C368.25 469.452 365.992 516.223 370.57 557.19C371.974 569.783 385.073 565.002 395.633 565.563C417.547 566.73 439.582 569.031 461.484 570.086C480.87 571.018 508.936 573.723 527.407 572.376C541.691 571.332 542.887 569.009 543.888 556.112C545.731 532.273 544.303 506.076 545.011 481.99C547.172 407.799 549.223 332.891 546.562 258.566C545.036 254.065 540.616 252.225 535.806 251.63C510.706 248.521 481.834 251.36 456.649 251.574C431.342 251.787 399.271 249.284 374.916 252.719C369.337 253.504 368.531 256.456 368.08 261.013C364.991 292.047 367.396 335.596 368.08 367.674C368.202 373.207 372.853 390.447 364.844 392.647C323.032 392.232 281.158 392.445 239.345 391.794C173.129 390.762 104.129 390.402 38.0098 387.305C35.2019 387.17 22.4445 386.373 21.1504 385.98C20.186 385.688 19.5634 385.239 19.3192 384.297C22.3102 356.832 25.7284 329.008 30.3431 301.632C33.3707 283.674 36.5814 263.179 41.5013 245.715C43.6133 238.195 42.9174 233.234 52.6595 232.415C64.7699 231.393 77.6128 233.492 89.2715 233.638C154.817 234.424 220.398 233.189 285.822 232.516C317.77 232.19 350.219 232.459 382.119 232.426C443.355 232.37 503.992 229.855 565.216 232.448C569.366 232.886 571.454 233.402 571.979 237.454C574.982 260.946 569.549 289.769 571.979 313.844C569.452 406.89 585.798 503.843 581.635 596.406C581.403 601.446 581.904 606.564 581.684 611.603L581.672 611.592ZM223.878 252.943C212.512 253.897 211.548 263.628 210.754 272.293C209.069 290.824 208.471 311.925 208.288 330.59C208.264 332.723 206.982 334.833 207.031 337.28C207.263 349.143 216.345 352.342 227.369 353.453C247.036 355.429 285.626 358.908 303.975 355.743C322.324 352.578 318.1 341.679 319.345 329.49C321.237 310.971 326.743 284.628 324.106 266.76C322.836 258.151 315.487 253.56 306.526 252.64C281.012 250.002 249.966 254.369 223.878 252.943ZM67.1871 264.257C61.1929 270.217 58.8001 288.691 58.2263 296.963C57.6159 305.796 56.8712 338.133 60.0331 344.631C61.7789 348.223 65.5756 349.794 69.7752 350.254C88.1605 352.275 130.108 351.646 149.164 350.266C163.851 349.199 172.177 345.843 173.983 331.578C175.29 321.229 176.23 307.469 176.632 296.997C177.304 279.634 180.918 259.015 156.489 257.085C138.873 255.693 109.586 256.03 91.7253 257.085C83.7656 257.556 72.8516 258.622 67.1871 264.257Z" fill="#FAF3EE"/>
<path d="M49.6664 216.74C48.0183 215.191 58.4318 184.415 60.0921 179.78C66.831 161.047 78.8437 141.574 84.4472 123.649C90.2095 105.219 85.7413 84.0285 91.4913 65.0601C92.5046 61.7042 93.2249 59.2349 97.1925 57.9666L156.45 54.1056C241.101 50.0313 325.557 47.0682 410.232 42.8705C548.537 36.0126 727.825 3.4184 792.149 152.831C802.465 176.794 817.164 211.891 778.171 219.591C686.647 225.91 593.707 219.108 501.719 220.152C482.882 214.271 465.779 219.344 446.905 220.152C363.438 223.766 280.997 212.004 196.847 217.975C162.896 220.388 130.948 221.881 96.6187 220.152C81.0046 219.366 65.366 216.976 49.6909 216.74H49.6664ZM425.199 67.8324C422.794 65.6213 401.711 66.2948 396.766 66.3958C377.38 66.8111 357.676 68.8314 338.302 69.8527C325.227 70.5486 311.908 69.6507 298.907 71.772C291.325 74.7576 294.267 87.6202 293.706 93.9056C293.144 100.191 289.506 121.494 291.875 125.905C293.242 128.453 298.784 129.059 301.604 129.295C319.367 130.799 344.235 129.833 361.375 126.949L420.621 126.455C424.625 124.67 422.684 116.701 423.063 112.997C423.795 105.78 429.142 71.4465 425.199 67.8212V67.8324ZM209.263 72.3781C186.495 73.1975 159.356 74.1852 136.93 76.5534C134.012 76.8565 118.679 79.1798 117.47 79.9767C115.321 81.3909 114.87 86.8009 114.491 89.5844C113.441 97.3177 112.16 108.755 111.879 116.398C111.159 135.76 132.645 128.655 146.684 128.15C164.569 127.51 182.539 126.534 200.314 125.849C208.201 125.546 230.248 127.409 235.608 124.648C239.917 122.426 240.296 116.971 241.065 112.84C242.505 105.186 244.703 91.2231 244.935 83.7816C245.032 80.3471 244.336 75.9137 241.223 73.7474C236.719 70.616 216.026 72.1424 209.263 72.3893V72.3781ZM580.803 89.1915C578.093 91.672 577.861 97.3289 577.959 100.696C578.362 114.984 579.766 133.582 581.694 147.758C583.123 158.252 583.086 166.39 596.881 167.433C602.851 167.882 607.563 166.311 612.74 166.232C627.682 165.986 668.421 168.735 679.628 163.786C687.661 160.239 687.514 152.629 687.868 145.592C688.515 132.651 688.295 115.725 686.598 102.918C685.475 94.4668 682.081 89.7527 673.194 87.2049C661.352 83.8041 610.09 84.4102 595.673 85.4764C592.144 85.7346 583.123 87.0702 580.803 89.2028V89.1915Z" fill="#F16C11"/>
<path d="M589.288 233.85C592.34 231.044 616.207 235.736 622.494 235.87C635.838 236.173 649.56 233.771 662.769 233.524C684.829 233.12 706.803 234.254 728.656 234.737C733.246 234.838 754.512 233.457 756.124 234.131C758.199 235.006 760.848 238.991 762.289 240.831C781.089 264.761 798.425 294.01 816.175 319.174C836.465 347.941 857.671 376.225 877.472 405.284C884.919 416.216 895.699 430.224 901.583 441.447C905.893 449.652 897.908 451.392 894.197 458.598C887.568 471.483 890.962 485.243 902.694 494.256C906.308 497.028 915.464 500.362 916.697 503.819C917.515 506.108 918.296 512.854 918.504 515.615C919.102 523.505 919.749 554.91 917.649 560.904C917.38 561.678 917.148 562.8 916.636 563.339C914.56 565.584 897.03 564.136 892.232 564.462C856.193 566.942 836.587 584.193 844.046 618.785C843.863 620.177 842.96 621.602 841.58 622.22C839.005 623.376 816.041 623.107 811.817 622.658C776.902 618.931 781.077 581.286 771.384 558.872C756.307 524.022 707.511 507.736 669.752 515.851C623.569 525.773 599.665 557.626 602.388 600.939C602.559 603.633 604.988 611.007 604.719 612.028C604.085 614.43 597.028 614.565 595.637 612.747C594.111 610.749 595.331 570.399 595.148 563.833C593.061 486.22 588.776 408.326 587.726 330.611C587.347 302.563 585.223 266.916 587.726 239.664C587.884 237.924 587.933 235.051 589.288 233.816V233.85ZM691.238 250.731C678.163 250.888 664.832 252.201 651.879 252.695C635.41 253.312 614.327 247.139 612.105 267.735C608.943 297.029 614.62 331.105 612.142 360.916C613.082 368.245 618.112 369.502 624.997 370.411C652.721 374.093 680.312 369.109 707.914 368.133C733.832 367.212 763.217 370.333 788.475 368.155C801.855 366.999 810.096 362.734 803.967 349.467C792.834 325.392 760.555 270.721 736.542 257.779C720.659 249.215 708.818 250.529 691.238 250.731Z" fill="#FAF3EE"/>
<path d="M530.142 559.728C527.688 561.984 500.025 561.288 494.446 561.108C467.283 560.221 439.815 557.191 412.664 555.519C396.122 554.497 386.807 560.85 385.183 541.522C381.167 493.933 387.088 440.732 385.281 392.256C384.427 369.437 382.791 349.212 382.84 326.169C382.876 305.371 382.107 284.484 383.499 263.742C386.819 261.564 442.427 262.934 451.779 262.788C476.378 262.429 502.759 259.533 527.432 261.564C529.983 261.778 534.146 261.968 535.111 264.606C534.659 323.981 536.393 383.445 535.367 442.819C534.83 473.595 533.145 505.067 531.607 535.832C531.363 540.625 532.938 557.169 530.142 559.728ZM491.662 384.769C495.544 391.066 513.161 385.937 505.897 375.588C500.684 368.158 486.474 376.351 491.662 384.769Z" fill="#FAF3EE"/>
<path d="M702.482 48.4889L714.019 46.2104C858.526 43.2136 993.816 78.9618 1071.48 197.778C1075.02 203.199 1082.25 210.641 1070.41 210.046C1020.12 207.487 967.202 199.563 916.612 195.455C884.432 192.84 852.105 191.56 819.924 188.99C817.995 188.103 816.652 186.801 815.688 185.039C812.282 178.843 810.28 166.419 807.435 158.977C788.964 110.58 752.694 71.2398 702.482 48.5001V48.4889Z" fill="#F16C11"/>
<path d="M949.742 449.329C946.996 446.669 940.415 442.707 936.533 441.843C928.354 440.036 918.734 443.425 912.911 437.757C909.297 429.732 871.342 380.123 872.099 376.609C872.734 373.646 890.741 375.117 894.721 374.937C952.868 372.266 1012.13 371.267 1070.33 370.358C1079.88 370.212 1099.95 369 1108.18 370.425C1112.88 371.244 1123.33 387.384 1126.41 391.807C1130.35 397.463 1134.84 404.153 1138.31 410.023C1139.98 412.863 1148.38 427.173 1147.33 428.722C1146.28 430.271 1140.19 432.381 1138.17 433.851C1130.23 439.665 1126.83 447.365 1124.76 456.288C1070.69 461.372 1016.28 465.132 961.767 464.627C958.386 464.044 953.222 452.685 949.742 449.318V449.329Z" fill="#FAF3EE"/>
<path d="M1159.79 547.995C1174.48 546.996 1182.09 553.775 1183.15 567.446C1184.64 586.673 1147.65 594.787 1131.98 598.705C1056.82 617.493 960.107 636.675 882.452 629.537C865.629 627.988 856.815 629.155 855.008 611.017C850.735 568.131 898.176 576.29 930.075 574.629C984.499 571.801 1039.24 569.489 1093.15 560.768C1114.06 557.389 1139.61 549.375 1159.78 548.006L1159.79 547.995Z" fill="#FAF3EE"/>
<path d="M1162.2 490.724C1164.41 493.069 1164.36 505.988 1162.37 508.839C1159.76 512.588 1131.47 517.055 1124.92 518.155C1077.64 526.101 1029.27 528.357 981.241 529.648C970.364 529.94 959.401 531.59 948.304 530.86C938.732 530.232 931.798 530.03 930.785 520.018C930.553 517.751 931.762 503.856 932.47 502.756C933.739 500.814 940.747 499.501 943.274 498.109C948.682 495.123 952.772 491.105 955.714 485.987C959.059 480.151 956.739 475.897 965.554 474.842C984.659 472.541 1010.05 475.515 1030.16 474.774C1060.62 473.652 1091.03 468.725 1121.56 468.062C1130.83 470.431 1132.38 479.893 1140.13 484.629C1145.79 488.086 1161.33 489.792 1162.2 490.701V490.724Z" fill="#FAF3EE"/>
<path d="M1067.31 222.371C1068 224.953 1066.78 224.212 1065.77 224.93C1056.82 231.305 1044.05 239.375 1032.59 240.352L798.875 225.705C802.879 221.047 807.628 216.714 810.827 211.473C813.427 207.219 814.245 199.935 818.933 199.867C902.021 204.705 984.963 211.562 1067.31 222.36V222.371Z" fill="#F16C11"/>
<path d="M402.055 12.9246C412.651 12.6103 443.941 10.3431 448.763 20.9384C450.411 24.5525 450.313 27.2014 445.589 28.2677C419.891 28.0993 394.388 31.6236 368.8 32.8358C316.842 35.2826 264.543 35.2153 212.573 38.4141C205.663 38.8406 182.309 43.2291 177.78 41.2088C174.289 39.6375 175.204 34.9347 176.804 32.4542C179.685 27.9758 195.885 25.5964 201.598 24.9678C221.351 22.8016 242.861 24.025 262.578 22.7006C309.054 19.5691 355.347 14.3051 402.055 12.947V12.9246Z" fill="#F16C11"/>
<path d="M1164.64 536.16C1120.95 544.141 1078.26 553.479 1033.75 557.733C1004.73 560.505 971.304 563.053 942.261 563.457C937.134 563.524 933.972 563.277 933.215 558.249C932.727 555.039 932.324 543.591 935.132 541.963C939.392 539.494 983.109 541.29 992.326 540.975C1043.05 539.269 1102.93 534.409 1152.8 525.846C1155.63 525.363 1160.41 522.95 1161.95 522.961C1166.28 522.995 1167.37 533.231 1164.64 536.172V536.16Z" fill="#FAF3EE"/>
<path d="M1101.48 359.199C1099.33 361.724 1092.58 358.234 1090.44 356.46C1076.06 344.496 1060.73 322.71 1047.2 308.714C999.615 259.452 952.638 259.508 884.945 258.206C853.655 257.611 822.268 258.779 790.979 258.217C786.804 257.757 785.668 253.189 786.84 249.99C788.012 246.791 803.822 248.419 808.082 248.194C857.415 245.703 917.735 245.4 966.458 252.819C1023.36 261.495 1045.15 291.956 1078.27 330.623C1079.85 334.316 1102.68 357.785 1101.48 359.188V359.199Z" fill="#FAF3EE"/>
<path d="M690.689 643.73C679.97 633.796 680.288 608.767 685.549 596.578C692.056 581.538 705.741 576.7 713.811 593.862C719.683 606.343 719.39 634.975 706.742 644.1C701.09 648.174 695.963 648.612 690.689 643.73Z" fill="#FAF3EE"/>
<path d="M920.567 451.46C955.702 445.848 956.544 495.783 921.604 491.462C897.054 488.432 896.578 455.287 920.567 451.46Z" fill="#D0A361"/>
<path d="M1175.5 473.224C1156.2 489.847 1124.77 466.972 1141.77 446.141C1161.1 422.425 1198.16 453.717 1175.5 473.224Z" fill="#D0A361"/>
<path d="M201.84 557.916C206.601 556.693 207.285 560.228 208.884 563.371C213.926 573.304 213.584 591.723 209.568 602.082C201.23 623.61 192.892 597.828 192.403 587.514C192.11 581.419 194.418 559.824 201.852 557.916H201.84Z" fill="#FAF3EE"/>
<path d="M737.862 685.639C760.447 673.719 775.024 652.584 781.238 629.575C782.263 625.793 780.371 621.618 786.67 624.48C794.972 628.251 784.253 649.374 780.774 654.964C773.901 666.019 763.182 676.256 751.181 682.721C748.3 684.27 739.376 689.78 737.862 685.639Z" fill="#FAF3EE"/>
<path d="M248.562 639.614C258.536 629.524 268.486 619.22 273.894 606.268C275.115 603.339 278.374 589.746 279.168 589.253C282.146 587.378 284.82 589.892 285.235 593.035C287.042 606.739 271.721 626.213 260.77 634.597C257.144 637.381 253.641 640.568 248.55 639.614H248.562Z" fill="#FAF3EE"/>
<path d="M223.878 252.938C249.966 254.364 281.012 249.998 306.526 252.635C315.499 253.567 322.836 258.146 324.106 266.755C326.743 284.623 321.237 310.966 319.345 329.485C318.1 341.675 321.896 352.64 303.975 355.738C286.054 358.836 247.037 355.424 227.369 353.449C216.345 352.337 207.275 349.15 207.031 337.275C206.982 334.828 208.264 332.718 208.288 330.585C208.471 311.92 209.069 290.819 210.754 272.288C211.548 263.624 212.5 253.892 223.878 252.938ZM305.745 344.458C309.273 342.449 308.016 325.782 308.37 321.629C309.505 308.598 312.801 293.984 313.29 281.29C313.668 271.334 314.523 263.668 301.692 262.692C285.98 261.491 269.67 263.388 254.105 263.904C249.185 264.072 226.136 263.029 224.085 264.353C221.644 265.936 221.998 270.021 226.136 270.201C245.095 271.009 264.457 269.561 283.38 270.549C286.371 270.706 299.055 271.817 300.496 272.76C302.425 274.006 303.218 276.89 303.487 278.989C306.124 299.933 300.081 323.559 299.8 344.638C301.46 344.413 304.524 345.165 305.733 344.481L305.745 344.458Z" fill="#19323A"/>
<path d="M67.1852 264.261C72.8497 258.627 83.7637 257.561 91.7234 257.089C109.596 256.034 138.871 255.709 156.487 257.089C180.928 259.02 177.314 279.638 176.631 297.002C176.228 307.473 175.288 321.234 173.981 331.582C172.175 345.848 163.861 349.204 149.162 350.27C130.118 351.651 88.1586 352.279 69.7733 350.259C65.5737 349.799 61.777 348.227 60.0312 344.636C56.8693 338.137 57.614 305.801 58.2244 296.968C58.7982 288.696 61.191 270.221 67.1852 264.261ZM75.2913 276.204H149.114C152.654 276.204 154.302 281.95 154.595 284.622C156.487 301.188 151.335 318.63 152.044 333.973C152.312 339.753 155.852 340.775 160.15 336.835C163.409 333.85 161.493 327.07 161.932 322.772C163.055 311.615 165.35 299.123 165.631 288.034C165.9 277.752 167.523 268.302 154.046 267.18C131.656 265.316 107.154 270.165 84.4352 268.358C80.5408 267.314 72.1416 273.274 75.2791 276.215L75.2913 276.204Z" fill="#19323A"/>
<path d="M580.805 89.1972C583.124 87.0758 592.146 85.7402 595.674 85.4708C610.092 84.4045 661.354 83.7872 673.196 87.1993C682.095 89.7584 685.489 94.4612 686.6 102.913C688.297 115.719 688.517 132.645 687.87 145.586C687.516 152.624 687.662 160.233 679.629 163.78C668.41 168.73 627.684 165.98 612.741 166.227C607.553 166.305 602.853 167.888 596.883 167.428C583.076 166.384 583.124 158.247 581.696 147.752C579.767 133.588 578.363 114.978 577.96 100.69C577.863 97.3233 578.107 91.6664 580.805 89.1859V89.1972ZM675.637 152.814V104.024C675.637 101.903 670.046 95.6846 666.506 96.7172L593.269 96.7396C588.984 97.1437 590.315 101.476 590.217 104.596C600.997 104.686 611.813 104.484 622.605 104.54C627.073 104.563 631.517 104.484 635.937 104.54C643.103 104.63 661.024 103.362 666.261 106.763C671.499 110.163 670.327 138.425 672.317 146.349C672.732 147.999 673.611 152.365 675.637 152.826V152.814Z" fill="#19323A"/>
<path d="M425.2 67.8424C429.144 71.4565 423.796 105.802 423.064 113.019C422.685 116.723 424.614 124.692 420.622 126.476L361.376 126.97C344.224 129.855 319.368 130.82 301.606 129.316C298.786 129.08 293.243 128.474 291.876 125.926C289.508 121.526 293.146 100.223 293.707 93.9268C294.269 87.6302 291.327 74.7788 298.908 71.7932C311.909 69.6719 325.241 70.5586 338.303 69.8739C357.677 68.8525 377.393 66.8322 396.768 66.417C401.712 66.3159 422.795 65.6425 425.2 67.8536V67.8424ZM409.635 90.5708C410.66 97.9786 408.878 107.07 409.635 114.691L412.077 113.03C411.649 104.017 413.896 94.9818 414.494 86.0813C414.665 83.5671 415.507 77.6184 412.516 76.7093L308.967 81.0305C304.511 81.8049 303.767 88.6403 310.139 88.6852C326.51 88.7862 346.947 85.2731 363.891 84.4089C378.004 83.6906 392.251 83.3987 406.4 83.2192C407.145 83.3763 409.513 89.628 409.635 90.5596V90.5708Z" fill="#19323A"/>
<path d="M209.264 72.3812C216.04 72.1343 236.733 70.619 241.225 73.7393C244.338 75.8943 245.034 80.339 244.936 83.7735C244.717 91.2262 242.507 105.189 241.066 112.832C240.297 116.951 239.919 122.406 235.609 124.64C230.25 127.401 208.202 125.538 200.316 125.841C182.553 126.525 164.583 127.502 146.686 128.142C132.646 128.647 111.148 135.751 111.881 116.39C112.161 108.747 113.443 97.3095 114.493 89.5762C114.872 86.7927 115.323 81.3828 117.472 79.9686C118.68 79.1717 134.014 76.8483 136.932 76.5453C159.358 74.177 186.496 73.1893 209.264 72.37V72.3812ZM188.169 91.1251C193.174 92.4383 215.185 91.1251 222.339 91.1251C222.803 91.1251 226.612 93.673 226.612 93.9311V110.756C226.612 110.935 227.808 114.033 229.041 113.551C228.993 108.994 234.535 86.8039 231.569 84.8846C226.929 81.8879 196.885 86.9723 189.402 85.5244C185.691 85.4122 185.349 90.3844 188.181 91.1251H188.169ZM174.13 115.234C175.387 111.149 174.13 94.0883 174.13 88.3079C174.13 87.1519 171.285 86.557 169.918 86.5682C161.763 86.6131 147.784 87.9488 139.361 88.8691C136.126 89.2283 126.53 89.4752 126.53 92.7863C126.53 97.2085 141.546 95.6147 145.441 95.581C148.065 95.5586 150.8 94.3576 153.986 94.3689C155.769 94.3689 167.098 95.7269 168.038 96.1422C173.995 98.735 166.939 114.718 169.246 116.895C169.954 117.569 173.702 116.592 174.117 115.223L174.13 115.234Z" fill="#19323A"/>
<path d="M691.238 250.737C708.805 250.535 720.647 249.222 736.542 257.786C760.555 270.738 792.833 325.41 803.967 349.474C810.095 362.741 801.855 367.006 788.475 368.162C763.216 370.339 733.832 367.219 707.914 368.14C680.324 369.116 652.721 374.099 624.997 370.418C618.111 369.498 613.082 368.241 612.142 360.923C614.62 331.101 608.943 297.036 612.105 267.741C614.327 247.146 635.41 253.319 651.879 252.701C664.832 252.219 678.163 250.894 691.238 250.737ZM782.139 356.635C785.24 359.183 794.872 357.971 793.517 353.548C771.982 322.436 759.652 276.698 717.082 264.487C698.013 259.021 676.344 261.95 656.786 262.803C652.208 263.005 626.73 262.567 624.936 264.924C623.69 266.563 623.922 270.94 626.413 271.647C628.354 272.197 632.102 270.637 634.726 270.559C657.214 269.964 692.434 268.426 713.212 274.779C752.681 286.833 762.24 327.531 782.151 356.646L782.139 356.635Z" fill="#19323A"/>
<path d="M491.66 384.763C486.472 376.346 500.682 368.141 505.895 375.582C513.159 385.931 495.542 391.071 491.66 384.763Z" fill="#19323A"/>
<path d="M305.745 344.465C304.537 345.15 301.485 344.409 299.812 344.623C300.093 323.544 306.148 299.929 303.499 278.974C303.231 276.875 302.437 274.002 300.508 272.745C299.068 271.802 286.371 270.691 283.392 270.533C264.458 269.546 245.108 271.005 226.149 270.186C222.01 270.006 221.644 265.92 224.098 264.338C226.149 263.013 249.198 264.057 254.118 263.889C269.671 263.373 285.993 261.476 301.705 262.677C314.535 263.653 313.681 271.319 313.302 281.275C312.814 293.969 309.518 308.583 308.382 321.614C308.016 325.766 309.286 342.423 305.758 344.443L305.745 344.465Z" fill="#FAF3EE"/>
<path d="M75.2946 276.204C72.1571 273.274 80.544 267.314 84.4506 268.347C107.17 270.154 131.671 265.305 154.061 267.169C167.539 268.291 165.903 277.741 165.647 288.023C165.366 299.112 163.071 311.604 161.947 322.761C161.52 327.059 163.425 333.839 160.165 336.824C155.868 340.764 152.328 339.754 152.059 333.962C151.351 318.619 156.503 301.177 154.61 284.61C154.305 281.939 152.657 276.193 149.129 276.193H75.3068L75.2946 276.204Z" fill="#FAF3EE"/>
<path d="M675.637 152.811C673.598 152.35 672.731 147.984 672.316 146.334C670.326 138.41 671.596 110.227 666.261 106.748C660.926 103.268 643.102 104.604 635.936 104.525C631.517 104.469 627.073 104.548 622.605 104.525C611.813 104.48 600.997 104.671 590.217 104.581C590.315 101.461 588.984 97.1288 593.269 96.7247L666.505 96.7023C670.046 95.6809 675.637 101.899 675.637 104.009V152.799V152.811Z" fill="#FAF3EE"/>
<path d="M409.635 90.5652C409.501 89.6336 407.132 83.3819 406.4 83.2247C392.251 83.4043 378.016 83.6961 363.891 84.4145C346.946 85.2787 326.51 88.7918 310.139 88.6908C303.754 88.6459 304.511 81.8217 308.967 81.0361L412.516 76.7148C415.519 77.6128 414.665 83.5614 414.494 86.0868C413.896 94.9874 411.649 104.023 412.077 113.035L409.635 114.697C408.878 107.087 410.66 97.9842 409.635 90.5764V90.5652Z" fill="#FAF3EE"/>
<path d="M174.131 115.233C173.704 116.613 169.968 117.579 169.26 116.905C166.94 114.716 173.997 98.7449 168.051 96.1521C167.124 95.7481 155.782 94.39 154 94.3787C150.814 94.3675 148.079 95.5685 145.454 95.5909C141.548 95.6246 126.544 97.2184 126.544 92.7962C126.544 89.4851 136.139 89.2382 139.375 88.879C147.798 87.9474 161.776 86.623 169.931 86.5781C171.299 86.5781 174.143 87.1618 174.143 88.3178C174.143 94.0982 175.401 111.159 174.143 115.244L174.131 115.233Z" fill="#FAF3EE"/>
<path d="M188.168 91.1259C185.336 90.3851 185.678 85.4129 189.389 85.5252C196.861 86.9731 226.905 81.8886 231.556 84.8854C234.523 86.8047 228.98 108.994 229.029 113.551C227.796 114.034 226.6 110.936 226.6 110.757V93.9319C226.6 93.6737 222.791 91.1259 222.327 91.1259C215.173 91.1259 193.162 92.4391 188.156 91.1259H188.168Z" fill="#FAF3EE"/>
<path d="M782.139 356.627C762.228 327.512 752.669 286.826 713.2 274.76C692.422 268.407 657.189 269.945 634.714 270.54C632.089 270.607 628.342 272.179 626.401 271.629C623.91 270.921 623.678 266.544 624.923 264.905C626.718 262.548 652.196 262.986 656.774 262.784C676.332 261.931 698.001 259.002 717.07 264.468C759.639 276.679 771.982 322.417 793.505 353.529C794.86 357.952 785.228 359.164 782.127 356.616L782.139 356.627Z" fill="#FAF3EE"/>
</svg>
