<svg width="356" height="361" viewBox="0 0 356 361" fill="none" xmlns="http://www.w3.org/2000/svg">
<path d="M26.9574 181.696C22.0476 181.696 18.0488 177.649 18.0488 172.68C18.0488 170.272 18.9726 168.006 20.6556 166.302C22.3386 164.599 24.5784 163.664 26.9574 163.664C31.8672 163.664 35.866 167.711 35.866 172.68C35.866 177.649 31.8672 181.696 26.9574 181.696Z" fill="#FD7E40"/>
<path d="M32.0576 226.753C22.6738 226.753 15.0312 219.018 15.0312 209.521C15.0312 204.919 16.7968 200.587 20.0134 197.331C23.23 194.076 27.5108 192.289 32.0576 192.289C41.4415 192.289 49.084 200.024 49.084 209.521C49.084 219.018 41.4415 226.753 32.0576 226.753Z" fill="#FD7E40"/>
<path d="M324.485 188.456C315.102 188.456 307.459 180.721 307.459 171.224C307.459 166.622 309.224 162.29 312.441 159.035C315.658 155.779 319.939 153.992 324.485 153.992C333.869 153.992 341.512 161.727 341.512 171.224C341.512 180.721 333.869 188.456 324.485 188.456Z" fill="#FD7E40"/>
<path d="M321.129 290.47C318.206 292.519 315.067 294.273 311.815 295.746C313.245 299.716 312.739 304.66 309.993 309.219C306.209 315.815 299.541 320.284 292.72 322.833C287.114 324.921 281.356 325.907 275.51 326.381C272.03 326.675 268.525 326.79 265.02 326.867C262.312 326.893 259.566 326.816 256.845 326.598C252.872 326.304 248.911 325.753 244.988 324.972C244.976 324.972 244.976 324.985 244.963 324.985C238.712 327.981 231.107 331.132 222.59 333.053C218.908 333.975 215.213 334.539 211.569 334.769C210.316 334.833 209.063 334.884 207.81 334.884C206.115 334.884 204.432 334.808 202.774 334.667C190.841 333.604 179.68 328.839 171.012 320.809C169.114 319.145 167.329 317.313 165.621 315.392C165.608 315.405 165.57 315.418 165.558 315.443C161.8 318.837 157.826 321.783 153.612 324.191C146.235 328.34 138.098 331.055 129.974 333.002C121.863 334.859 113.65 336.229 105.045 335.896C96.314 335.55 81.749 332.528 78.5728 322.692H78.4843C76.2318 322.692 73.992 322.667 71.8028 322.577C71.3599 322.577 70.9423 322.564 70.4994 322.513C63.489 322.052 56.5545 318.76 52.1508 312.946C49.3163 309.463 46.7601 304.916 47.279 299.921C47.7472 295.439 50.4425 292.019 53.9477 289.881C53.9351 289.881 53.8971 289.868 53.8845 289.868C53.8212 289.842 53.7579 289.842 53.682 289.804C43.5713 286.359 38.0414 278.162 37.8516 266.943C37.8263 248.053 55.6687 243.827 70.3856 248.642C74.8905 250.179 80.104 254.034 83.6092 257.453C86.3931 255.058 105.767 240.702 92.1128 214.755C92.1255 214.755 92.1761 214.768 92.2014 214.755C72.7013 193.803 60.7177 165.589 60.7177 134.532C60.7177 128.448 61.1859 122.493 62.0591 116.653C62.3881 114.45 62.793 112.286 63.2486 110.109C63.9825 106.574 64.8557 103.103 65.906 99.684C66.0199 99.351 66.1211 99.018 66.235 98.6722C67.2473 95.4705 68.3988 92.32 69.6643 89.2463C69.7149 89.131 69.7528 89.003 69.8035 88.9005C70.2464 87.8375 70.7019 86.7874 71.1828 85.75C71.1954 85.7372 71.2081 85.6988 71.2334 85.6731C88.519 47.4571 125.571 20.3063 169.139 17.5271C169.468 17.5528 169.797 17.5912 170.113 17.6168C172.201 17.5015 174.289 17.4375 176.403 17.4375C216.668 17.4375 252.113 38.2617 272.828 69.8309C272.954 69.8949 273.068 69.959 273.182 70.023C276.636 75.3123 279.673 80.9218 282.268 86.7874H282.28C285.254 93.5495 287.62 100.645 289.291 108.021H289.278C290.986 115.513 291.986 123.274 292.188 131.253C292.138 131.407 292.075 131.573 292.037 131.74C292.049 132.662 292.1 133.597 292.1 134.532C292.1 138.822 291.859 143.061 291.429 147.224C288.734 172.479 278.104 195.327 262.122 213.167C255.301 225.513 252.366 239.575 266.703 255.084C267.045 255.468 274.308 234.977 290.657 228.983C310.322 221.76 333.125 226.422 337.807 249.308C340.464 265.496 333.631 281.428 321.091 290.483L321.129 290.47Z" fill="#FD7E40"/>
<path d="M321.446 143.071C326.355 143.071 330.354 139.024 330.354 134.055C330.354 129.086 326.355 125.039 321.446 125.039C316.536 125.039 312.537 129.086 312.537 134.055C312.537 139.024 316.536 143.071 321.446 143.071Z" fill="#FD7E40"/>
<path d="M194.095 164.042C187.743 172.11 175.62 174.595 166.61 169.933C163.636 168.46 161.08 166.437 159.068 164.042C158.018 162.8 158.17 160.93 159.397 159.88C160.321 159.073 161.599 158.97 162.624 159.496C165.054 160.661 167.357 161.698 169.647 162.403C176.531 164.67 183.921 162.864 190.084 159.342C193.02 157.664 196.158 161.378 194.108 164.042H194.095Z" fill="#1E014A"/>
<path d="M311.703 295.749C313.145 299.732 312.626 304.676 309.906 309.222C306.097 315.818 299.428 320.287 292.633 322.836C283.699 326.166 274.398 326.665 265.034 326.87C258.315 326.947 251.545 326.319 244.901 324.975C233.297 322.631 222.149 318.085 212.506 311.13C201.75 303.177 193.943 294.494 188.324 284.953C196.36 269.738 201.75 252.884 204.117 237.849C204.559 235.172 204.648 232.636 204.458 230.229C204.585 229.089 204.661 227.949 204.661 226.771C204.661 213.605 196.347 202.386 184.68 197.981C189.64 193.895 196.499 191.359 204.091 191.359C212.924 191.359 220.744 194.817 225.768 200.158C231.842 205.37 235.334 213.567 233.778 223.671C232.829 232.419 230.349 241.448 230.69 250.105C231.462 258.417 235.701 266.869 241.117 273.17C254.582 288.295 276.549 289.384 295.467 288.206C296.328 288.142 297.922 288.052 298.909 288.001C305.603 287.719 309.994 291.075 311.665 295.762L311.703 295.749Z" fill="#DB6D37"/>
<path d="M269.818 133.367C267.426 113.081 261.39 94.2549 252.583 77.9004H216.936C210.621 77.9004 205.028 80.9485 201.422 85.6358C203.649 77.132 211.305 70.8438 220.378 70.8438H257.265C272.425 70.8438 284.737 83.3178 284.737 98.6477V112.787C284.737 122.43 278.461 130.627 269.818 133.38V133.367Z" fill="#DB6D37"/>
<path d="M281.713 262.519C288.041 264.043 295.089 263.313 299.847 258.997C301.226 257.716 302.264 256.167 303.023 254.502C304.035 252.273 306.655 251.3 308.844 252.337C311.527 253.528 312.235 257.204 310.274 259.356C306.706 263.774 301.214 266.681 295.709 266.988C293.077 267.193 290.508 266.937 288.091 266.374C285.674 265.81 283.333 264.914 281.22 263.697C280.904 263.518 280.815 263.121 280.98 262.813C281.119 262.557 281.435 262.429 281.713 262.532V262.519Z" fill="#DB6D37"/>
<path d="M264.352 58.577C262.049 58.1672 259.682 57.9239 257.266 57.9239H239.423C221.581 35.486 197.525 20.6171 170.66 17.6459C172.584 17.5562 174.507 17.4922 176.456 17.4922C211.66 17.4922 243.181 33.4497 264.365 58.577H264.352Z" fill="#DB6D37"/>
<path d="M188.323 284.938C193.942 294.479 201.75 303.162 212.506 311.115C222.148 318.069 233.296 322.616 244.9 324.959C238.649 327.956 231.031 331.12 222.502 333.041C217.605 334.257 212.67 334.859 207.836 334.859C193.993 334.859 180.845 329.967 170.924 320.771C169.026 319.107 167.242 317.275 165.533 315.354C174.556 307.209 182.211 296.566 188.323 284.938Z" fill="#BD5E30"/>
<path d="M291.964 131.72C291.964 131.72 291.913 131.836 291.9 131.874C291.913 132.732 291.964 133.564 291.964 134.41C291.964 138.803 291.812 143.054 291.457 147.191C288.762 172.446 278.133 195.294 262.15 213.134C270.426 194.026 270.983 176.301 270.983 153.134C270.983 152.929 270.97 152.711 270.97 152.48C267.516 153.684 263.795 154.35 259.936 154.35H228.832C204.409 154.35 184.555 134.243 184.555 109.539V97.7561C184.555 95.9119 184.745 94.1061 185.023 92.3516H187.997V102.482C187.997 127.199 207.851 147.294 232.274 147.294H263.39C275.399 147.294 285.978 140.967 292.052 131.438C292.027 131.528 291.989 131.631 291.964 131.72Z" fill="#DB6D37"/>
<path d="M164.788 90.7086C164.788 86.4439 163.941 82.3713 162.473 78.6316C165.953 77.7607 169.521 77.3125 173.153 77.3125C178.784 77.3125 184.314 78.3883 189.477 80.4502C189.603 80.2709 189.717 80.1044 189.831 79.9251C188.654 83.3062 187.996 86.9177 187.996 90.6958V92.3479H185.022C181.264 90.8239 177.24 90.017 173.14 90.017C170.293 90.017 167.484 90.4397 164.776 91.1953V90.7086H164.788Z" fill="#DB6D37"/>
<path d="M152.678 204.234C147.996 208.575 144.668 214.338 143.39 220.844C143.377 220.87 143.377 220.896 143.364 220.908C142.896 222.714 142.782 224.558 142.833 226.39C142.82 226.518 142.808 226.646 142.808 226.774C142.808 228.17 142.934 229.527 143.124 230.872C143.213 231.999 143.326 233.101 143.39 234.202C143.959 242.501 143.693 250.838 142.251 258.881C139.606 275.108 129.926 289.298 115.715 296.546C110.489 299.338 104.845 301.413 99.1379 302.937C91.2164 305.012 79.2835 308.073 77.8789 318.549C77.8789 320.034 78.1193 321.418 78.5243 322.686C76.2718 322.686 74.032 322.66 71.8428 322.57C64.3769 322.481 56.7843 319.138 52.0896 312.939C49.2677 309.456 46.6989 304.909 47.2304 299.915C47.6859 295.432 50.3813 292.013 53.8992 289.874C56.392 288.363 59.2899 287.492 62.0991 287.389C69.5651 286.467 76.9678 285.161 83.8896 282.638C94.4053 279.026 103.061 271.534 108.78 261.737C112.665 255.372 115.576 248.328 115.766 240.772C116.044 232.883 113.349 225.045 114.437 216.836C114.981 211.956 116.702 208.345 119.17 205.745C122.801 200.315 129.192 196.703 136.481 196.703C143.086 196.703 148.958 199.687 152.703 204.259L152.678 204.234Z" fill="#DB6D37"/>
<path d="M60.8963 131.727C66.9956 141.089 77.486 147.288 89.3936 147.288H120.498C136.277 147.288 150.134 138.886 157.992 126.297C151.412 142.728 135.493 154.357 116.929 154.357H85.8125C76.17 154.357 67.4512 150.272 61.238 143.727C60.9976 140.654 60.8457 137.554 60.8457 134.417C60.8457 133.507 60.8963 132.636 60.909 131.74L60.8963 131.727Z" fill="#DB6D37"/>
<path d="M152.02 90.7074V102.477C152.02 109.162 149.97 115.361 146.49 120.496C147.73 117.077 148.426 113.401 148.426 109.546V97.7641C148.426 86.8141 139.631 77.9132 128.812 77.9132H91.9248C82.9277 77.9132 74.9429 82.3316 69.9318 89.1321C69.9192 89.1577 69.8053 89.2218 69.6914 89.2218C69.7167 89.1321 69.7547 89.0425 69.78 88.9528C69.78 88.94 69.7926 88.9272 69.7926 88.9016C70.3368 87.4032 71.0328 85.9688 71.8173 84.6113C76.5879 76.3892 85.4079 70.8438 95.4933 70.8438H132.38C143.2 70.8438 152.007 79.7574 152.007 90.7074H152.02Z" fill="#DB6D37"/>
<path d="M66.3385 263.312C66.8827 263.3 67.0092 264.119 66.5157 264.273C61.5552 266.399 56.5948 266.95 51.9887 263.287C48.2683 260.405 53.1908 255.295 56.1266 259.022C57.3287 260.764 58.2145 261.916 60.0367 262.557C61.8589 263.184 64.1367 263.3 66.3512 263.3L66.3385 263.312Z" fill="#DB6D37"/>
<path d="M303.425 77.3757H291.619C284.545 65.7085 271.815 57.9219 257.313 57.9219H220.426C208.683 57.9219 198.383 64.2741 192.714 73.7769C187.614 71.7918 182.173 70.7673 176.63 70.7673C171.088 70.7673 165.418 71.8431 160.218 73.905C154.561 64.3382 144.235 57.9219 132.429 57.9219H95.5419C81.0402 57.9219 68.3227 65.7213 61.2364 77.3757H49.43C46.0007 77.3757 43.2168 80.1932 43.2168 83.6639V89.2862C43.2168 91.5018 44.381 93.5637 46.2665 94.6907L55.3016 100.082V112.774C55.3016 131.805 70.6005 147.276 89.392 147.276H120.509C144.931 147.276 164.786 127.182 164.786 102.465V90.695C164.786 89.0685 164.659 87.4676 164.431 85.8923C168.266 84.2915 172.404 83.4718 176.605 83.4718C180.806 83.4718 184.666 84.2531 188.399 85.7387C188.145 87.3523 188.019 89.0172 188.019 90.695V102.465C188.019 127.182 207.873 147.276 232.296 147.276H263.4C282.217 147.276 297.516 131.793 297.516 112.774V100.082L306.551 94.6907C308.449 93.5637 309.601 91.5018 309.601 89.2862V83.6639C309.601 80.1932 306.817 77.3757 303.387 77.3757H303.425ZM152.094 102.477C152.094 120.061 137.946 134.392 120.559 134.392H89.4426C77.6869 134.392 68.1076 124.698 68.1076 112.787V98.6481C68.1076 83.3053 80.4328 70.8441 95.5799 70.8441H132.467C143.286 70.8441 152.094 79.7578 152.094 90.7078V102.477ZM284.798 112.774C284.798 124.685 275.219 134.38 263.451 134.38H232.347C214.972 134.38 200.812 120.061 200.812 102.465V90.695C200.812 79.745 209.632 70.8313 220.439 70.8313H257.326C272.486 70.8313 284.798 83.3053 284.798 98.6353V112.774Z" fill="#1E014A"/>
<path d="M231.044 118.689C238.599 118.689 244.724 112.49 244.724 104.844C244.724 97.1983 238.599 91 231.044 91C223.49 91 217.365 97.1983 217.365 104.844C217.365 112.49 223.49 118.689 231.044 118.689Z" fill="#1E014A"/>
<path d="M225.996 105.189C228.785 105.189 231.045 102.901 231.045 100.079C231.045 97.2566 228.785 94.9688 225.996 94.9688C223.208 94.9688 220.947 97.2566 220.947 100.079C220.947 102.901 223.208 105.189 225.996 105.189Z" fill="white"/>
<path d="M120.458 118.212C128.013 118.212 134.138 112.014 134.138 104.368C134.138 96.7218 128.013 90.5234 120.458 90.5234C112.904 90.5234 106.779 96.7218 106.779 104.368C106.779 112.014 112.904 118.212 120.458 118.212Z" fill="#1E014A"/>
<path d="M115.408 104.704C118.197 104.704 120.457 102.417 120.457 99.5944C120.457 96.7722 118.197 94.4844 115.408 94.4844C112.62 94.4844 110.359 96.7722 110.359 99.5944C110.359 102.417 112.62 104.704 115.408 104.704Z" fill="white"/>
</svg>
