<svg width="31" height="30" viewBox="0 0 31 30" fill="none" xmlns="http://www.w3.org/2000/svg">
  <path d="M15.5,0 C23.784,0 30,6.716 30,15 C30,23.284 23.784,30 15.5,30 C7.216,30 0.5,23.284 0.5,15 C0.5,6.716 7.216,0 15.5,0 Z M18.692,7.008 C18.2,7.5 17.891,8.105 17.764,8.74 C15.36,7.835 12.604,8.41 10.768,10.245 C8.931,12.082 8.357,14.842 9.265,17.248 C8.627,17.373 8.017,17.683 7.522,18.178 C6.196,19.503 6.196,21.653 7.522,22.978 C8.847,24.304 10.997,24.304 12.322,22.978 C12.82,22.48 13.131,21.866 13.255,21.224 C13.999,21.502 14.777,21.639 15.551,21.639 C17.271,21.639 18.969,20.971 20.232,19.709 C22.06,17.88 22.638,15.136 21.747,12.739 C22.387,12.613 22.997,12.303 23.492,11.808 C24.818,10.483 24.818,8.333 23.492,7.008 C22.167,5.682 20.017,5.682 18.692,7.008 Z M22.657,7.803 C23.531,8.677 23.531,10.099 22.657,10.973 C22.154,11.477 21.46,11.708 20.753,11.607 C20.72,11.603 20.687,11.604 20.654,11.608 C20.445,11.58 20.227,11.609 20.022,11.704 C19.73,11.839 19.521,12.081 19.42,12.362 C19.321,12.638 19.326,12.951 19.458,13.238 C20.211,14.863 19.865,16.807 18.598,18.075 C17.33,19.342 15.386,19.688 13.76,18.935 C13.469,18.801 13.151,18.797 12.873,18.901 C12.597,19.003 12.36,19.21 12.226,19.498 C12.141,19.682 12.109,19.877 12.122,20.066 C12.117,20.103 12.116,20.141 12.122,20.18 C12.241,20.893 12.007,21.624 11.496,22.135 C10.622,23.008 9.2,23.008 8.326,22.135 C7.903,21.711 7.67,21.148 7.67,20.549 C7.67,19.95 7.903,19.387 8.326,18.964 C8.83,18.461 9.523,18.23 10.266,18.332 C10.34,18.347 10.416,18.357 10.494,18.357 C10.656,18.357 10.821,18.323 10.978,18.25 C11.263,18.118 11.469,17.884 11.572,17.612 C11.679,17.331 11.677,17.01 11.541,16.716 C10.789,15.09 11.135,13.147 12.402,11.879 C13.67,10.612 15.614,10.266 17.24,11.019 C17.529,11.153 17.846,11.157 18.124,11.055 C18.401,10.953 18.64,10.745 18.774,10.456 C18.877,10.232 18.902,9.991 18.861,9.758 C18.743,9.044 18.977,8.314 19.487,7.803 C20.361,6.929 21.783,6.929 22.657,7.803 Z M13.76,13.237 C12.791,14.207 12.791,15.779 13.76,16.749 C14.73,17.719 16.302,17.719 17.272,16.749 C18.242,15.779 18.242,14.207 17.272,13.237 C16.302,12.268 14.73,12.268 13.76,13.237 Z" fill="#1F004A"/>
</svg>