<svg width="1048" height="1097" viewBox="0 0 1048 1097" fill="none" xmlns="http://www.w3.org/2000/svg">
<g clip-path="url(#clip0_2940_120237)">
<path d="M366.195 1097C345.961 1097 326.266 1089.88 310.753 1076.91L30.891 843.353C11.2637 826.96 0 802.93 0 777.422V194.053C0 152.488 29.7893 116.902 70.8649 109.445L665.932 1.38849C671.036 0.470297 676.229 0 681.422 0C701.252 0 720.632 6.87529 735.987 19.3493L1016.23 246.973C1036.42 263.366 1048.02 287.665 1048.02 313.621V901.424C1048.02 942.9 1018.3 978.463 977.36 985.988L381.888 1095.57C376.717 1096.51 371.456 1097 366.195 1097Z" fill="#3A4EFF"/>
<path d="M1004.83 313.63C1004.83 300.708 998.989 288.458 988.94 280.306L708.695 52.683C698.893 44.7327 686.1 41.4406 673.668 43.7025L78.6004 151.759C58.0739 155.476 43.168 173.28 43.168 194.063V777.432C43.168 790.153 48.8336 802.223 58.6135 810.398L338.476 1043.98C348.346 1052.22 361.385 1055.62 374.043 1053.29L969.515 943.716C989.996 939.953 1004.83 922.171 1004.83 901.434V313.63ZM327.369 434.026V704.76C327.369 708.007 325.031 710.784 321.839 711.367L120.305 747.96C116.169 748.722 112.347 745.542 112.347 741.354V265.817C112.347 260.106 119.024 256.993 123.431 260.666L324.964 428.875C326.493 430.152 327.369 432.033 327.369 434.026ZM396.526 445.358L575.554 412.415C602.083 407.533 626.567 427.823 626.567 454.697V620.174C626.567 640.957 611.661 658.761 591.134 662.478L396.526 697.795V445.336V445.358ZM695.723 641.718V395.91C695.723 392.662 698.039 389.885 701.254 389.303L927.697 347.626C931.834 346.865 935.656 350.022 935.656 354.233V825.626C935.656 831.292 929.046 834.405 924.64 830.844L698.196 646.914C696.622 645.637 695.723 643.734 695.723 641.696V641.718ZM695.723 312.712V139.15C695.723 133.484 702.333 130.371 706.739 133.932L880.979 275.447C885.43 279.075 883.587 286.219 877.944 287.271L703.704 319.341C699.567 320.102 695.745 316.945 695.745 312.734L695.723 312.712ZM621.036 334.525L376.763 379.472C374.785 379.83 372.739 379.293 371.21 378.016L175.545 214.711C171.161 211.061 173.049 203.984 178.67 202.954L618.608 122.645C622.745 121.884 626.567 125.064 626.567 129.252V327.918C626.567 331.166 624.251 333.943 621.036 334.525ZM327.369 787.667V930.838C327.369 936.549 320.692 939.662 316.286 935.989L175.545 818.527C171.161 814.877 173.049 807.8 178.67 806.77L319.411 781.083C323.547 780.321 327.369 783.501 327.369 787.689V787.667ZM402.056 765.966L677.197 715.734C679.131 715.375 681.154 715.891 682.683 717.145L882.013 879.039C886.464 882.667 884.621 889.811 878.978 890.863L404.507 978.159C400.37 978.921 396.548 975.763 396.548 971.553V772.572C396.548 769.325 398.864 766.548 402.079 765.966H402.056Z" fill="#F9FBFD"/>
</g>
<defs>
<clipPath id="clip0_2940_120237">
<rect width="1048" height="1097" fill="white"/>
</clipPath>
</defs>
</svg>
