<svg width="283" height="328" viewBox="0 0 283 328" fill="none" xmlns="http://www.w3.org/2000/svg">
<path d="M29.4227 0H109.934C200.755 0 274.492 73.6117 274.492 164.279C274.492 254.161 201.377 327.152 111.342 327.152H29.1609C13.0586 327.185 0 314.149 0 298.074V29.3728C0 13.1671 13.1895 0 29.4227 0Z" fill="#FCF9F7"/>
<mask id="mask0_2941_122166" style="mask-type:alpha" maskUnits="userSpaceOnUse" x="53" y="46" width="168" height="223">
<path d="M61.9984 54.9543C60.9839 50.3148 64.9767 46.1327 69.6569 47.0149C116.327 55.6405 163.718 65.3443 195.955 107.59C224.494 145 231.171 199.433 200.603 236.909C164.176 281.54 89.2938 280.168 62.0639 226.552C45.4052 193.781 58.4638 159.899 63.3403 126.181C66.7768 102.461 67.0713 78.348 62.0312 54.987L61.9984 54.9543Z" fill="#24DEF3"/>
</mask>
<g mask="url(#mask0_2941_122166)">
<path d="M61.9984 54.9543C60.9839 50.3148 64.9767 46.1327 69.6569 47.0149C116.327 55.6405 163.718 65.3443 195.955 107.59C224.494 145 231.171 199.433 200.603 236.909C164.176 281.54 89.2938 280.168 62.0639 226.552C45.4052 193.781 58.4638 159.899 63.3403 126.181C66.7768 102.461 67.0713 78.348 62.0312 54.987L61.9984 54.9543Z" fill="#24DEF3"/>
</g>
<mask id="mask1_2941_122166" style="mask-type:alpha" maskUnits="userSpaceOnUse" x="137" y="169" width="72" height="85">
<path d="M208.545 171.074C207.601 191.527 199.446 246.286 139.09 253.474C137.843 253.638 137.338 251.906 138.483 251.416C153.614 244.718 189.066 223.906 206.354 170.747C206.759 169.538 208.578 169.832 208.511 171.074H208.545Z" fill="white"/>
</mask>
<g mask="url(#mask1_2941_122166)">
<path d="M208.545 171.074C207.601 191.527 199.446 246.286 139.09 253.474C137.843 253.638 137.338 251.906 138.483 251.416C153.614 244.718 189.066 223.906 206.354 170.747C206.759 169.538 208.578 169.832 208.511 171.074H208.545Z" fill="#FCF9F7"/>
</g>
</svg>
